<?xml version="1.0" encoding="UTF-8"?>
<svg width="80px" height="102px" viewBox="0 0 80 102" version="1.1" xmlns="http://www.w3.org/2000/svg" xmlns:xlink="http://www.w3.org/1999/xlink">
    <title>Combined Shape</title>
    <g id="Page-1" stroke="none" stroke-width="1" fill="none" fill-rule="evenodd">
        <g id="Main-Logo" fill="#7E90B6" fill-rule="nonzero">
            <g id="logo" transform="translate(-29.938800, -13.497984)">
                <path d="M61.7632963,12.411899 C83.612733,12.411899 101.325201,30.086391 101.325201,51.8889818 C101.325201,72.5602868 85.4031628,89.5207738 65.129135,91.2252003 L65.3063358,118.983763 C65.31834,120.869425 63.6939384,122.40721 61.6780662,122.418564 C59.6963614,122.429602 58.0740561,120.961383 58.0081643,119.120212 L58.0061502,119.024652 L57.8279304,91.1732032 C37.8260425,89.2021707 22.2013916,72.3663305 22.2013916,51.8889818 C22.2013916,30.086391 39.9138597,12.411899 61.7632963,12.411899 Z M61.7632963,19.9313433 C44.0756571,19.9313433 29.7369925,34.2392654 29.7369925,51.8889818 C29.7369925,69.5386982 44.0756571,83.8466203 61.7632963,83.8466203 C79.4509356,83.8466203 93.7896002,69.5386982 93.7896002,51.8889818 C93.7896002,34.2392654 79.4509356,19.9313433 61.7632963,19.9313433 Z" id="Combined-Shape" transform="translate(61.763296, 67.415263) rotate(-330.000000) translate(-61.763296, -67.415263) "></path>
            </g>
        </g>
    </g>
</svg>