<?xml version="1.0" encoding="UTF-8"?>
<svg width="507px" height="135px" viewBox="0 0 507 135" version="1.1" xmlns="http://www.w3.org/2000/svg" xmlns:xlink="http://www.w3.org/1999/xlink">
    <title>Main Logosvg</title>
    <g id="Main-Logo" stroke="none" stroke-width="1" fill="none" fill-rule="evenodd">
        <g id="logo" transform="translate(-30.175505, -13.530366)" fill="#7E90B6" fill-rule="nonzero">
            <path d="M62.0000015,12.4442806 C83.8494382,12.4442806 101.561906,30.1187726 101.561906,51.9213634 C101.561906,72.5926685 85.639868,89.5531554 65.3658402,91.2575819 L65.543041,119.016144 C65.5550452,120.901807 63.9306436,122.439592 61.9147714,122.450946 C59.9330667,122.461983 58.3107613,120.993765 58.2448695,119.152594 L58.2428555,119.057034 L58.0646356,91.2055848 C38.0627477,89.2345523 22.4380968,72.3987121 22.4380968,51.9213634 C22.4380968,30.1187726 40.1505649,12.4442806 62.0000015,12.4442806 Z M62.0000015,19.9637249 C44.3123623,19.9637249 29.9736977,34.271647 29.9736977,51.9213634 C29.9736977,69.5710798 44.3123623,83.8790019 62.0000015,83.8790019 C79.6876408,83.8790019 94.0263054,69.5710798 94.0263054,51.9213634 C94.0263054,34.271647 79.6876408,19.9637249 62.0000015,19.9637249 Z" id="Combined-Shape" transform="translate(62.000002, 67.447644) rotate(-330.000000) translate(-62.000002, -67.447644) "></path>
        </g>
        <text id="Indeps" font-family="OpenSansRoman-SemiBold, Open Sans" font-size="135" font-weight="500" letter-spacing="-2.5" fill="#252525">
            <tspan x="86" y="103">Indeps</tspan>
        </text>
    </g>
</svg>